<?xml version="1.0" encoding="UTF-8"?>
<!-- Variation A: Diamonds get more visual weight, bigger TAKUMI, faded subline. -->
<svg xmlns="http://www.w3.org/2000/svg" viewBox="0 0 720 200" role="img" aria-label="Takumi Stamping Canada">
  <g fill="#007BFF" transform="translate(20 20)">
    <polygon points="60,0 90,30 60,60 30,30"/>
    <polygon points="120,0 150,30 120,60 90,30"/>
    <polygon points="30,30 60,60 30,90 0,60"/>
    <polygon points="90,30 120,60 90,90 60,60"/>
    <polygon points="150,30 180,60 150,90 120,60"/>
    <polygon points="60,60 90,90 60,120 30,90"/>
    <polygon points="120,60 150,90 120,120 90,90"/>
  </g>
  <text x="240" y="115" font-family="Helvetica Neue, Arial Black, Arial, sans-serif" font-weight="900" font-size="92" fill="#0a0a0a">TAKUMI</text>
  <text x="242" y="155" font-family="Helvetica Neue, Arial, sans-serif" font-weight="600" font-size="22" fill="#555">STAMPING CANADA INC</text>
</svg>
